<?xml version="1.0" encoding="iso-8859-1"?>
<!-- Generator: Adobe Illustrator 19.0.0, SVG Export Plug-In . SVG Version: 6.00 Build 0)  -->
<svg version="1.1" id="Layer_1" xmlns="http://www.w3.org/2000/svg" xmlns:xlink="http://www.w3.org/1999/xlink" x="0px" y="0px"
	 viewBox="0 0 127.391 127.391" style="enable-background:new 0 0 127.391 127.391;" xml:space="preserve">
<g>
	<g>
		<polygon style="fill:#FFF80D;" points="122.356,52.629 125.891,37.002 106.421,46.121 114.164,56.223 87.435,67.955 
			71.673,55.584 79.04,43.063 63.696,16.981 48.351,43.063 55.718,55.584 39.956,67.953 13.228,56.223 20.97,46.121 1.5,37.002 
			5.035,52.629 5.02,52.621 8.509,68.042 16.654,110.41 110.735,110.41 118.875,68.074 122.371,52.621 		"/>
	</g>
	<g>
		<polygon style="fill:#FFD00B;" points="124.08,45.005 110.457,51.387 114.164,56.223 114.164,63.379 87.435,75.111 71.673,62.74 
			71.673,55.584 76.935,46.641 63.696,24.137 50.456,46.641 55.718,55.584 55.718,62.74 39.956,75.11 13.228,63.379 13.228,56.223 
			16.934,51.387 3.312,45.005 5.035,52.629 5.02,52.621 8.509,68.042 16.654,110.41 110.735,110.41 118.875,68.074 122.371,52.621 
			122.356,52.629 		"/>
	</g>
	<g>
		<circle style="fill:#FFAF10;" cx="63.695" cy="86.587" r="15.735"/>
	</g>
	<g>
		<path style="fill:#FF860D;" d="M79.431,86.587c0,6.658-7.046,12.054-15.736,12.054c-8.689,0-15.734-5.396-15.734-12.054
			c0-6.651,7.045-12.054,15.734-12.054C72.385,74.533,79.431,79.936,79.431,86.587z"/>
	</g>
	<g>
		<path style="fill:#FFF9DE;" d="M47.96,86.587c0,8.691,7.045,15.737,15.734,15.737c8.69,0,15.736-7.046,15.736-15.737H47.96z"/>
	</g>
	<g>
		<path style="fill:#FFF3C2;" d="M63.694,98.641c8.69,0,15.736-5.396,15.736-12.054H47.96C47.96,93.245,55.005,98.641,63.694,98.641
			z"/>
	</g>
	<path style="fill:#33363A;" d="M126.831,35.834c-0.445-0.358-1.058-0.433-1.577-0.19l-19.469,9.119
		c-0.412,0.193-0.714,0.562-0.821,1.003c-0.107,0.441-0.01,0.908,0.267,1.268l6.58,8.584L87.654,66.221L73.631,55.214l6.702-11.391
		c0.276-0.47,0.276-1.052,0-1.521L64.989,16.22c-0.27-0.458-0.762-0.739-1.293-0.739c-0.531,0-1.023,0.281-1.293,0.739
		L47.058,42.302c-0.276,0.47-0.276,1.052,0,1.521l6.702,11.391L39.736,66.219L15.581,55.618l6.579-8.584
		c0.276-0.361,0.374-0.827,0.267-1.268c-0.107-0.441-0.409-0.81-0.821-1.003L2.137,35.644c-0.52-0.244-1.132-0.169-1.577,0.19
		c-0.446,0.359-0.649,0.941-0.522,1.5l3.488,15.42c0.006,0.066,0.017,0.133,0.031,0.199l3.479,15.373l8.146,42.368
		c0.136,0.706,0.754,1.217,1.473,1.217h94.081c0.719,0,1.337-0.511,1.473-1.217l8.13-42.288l3.496-15.453
		c0.015-0.066,0.025-0.133,0.031-0.199l3.488-15.42C127.481,36.775,127.277,36.193,126.831,35.834z M77.85,88.087
		c-0.752,7.148-6.813,12.737-14.156,12.737c-7.342,0-13.402-5.589-14.154-12.737H77.85z M49.541,85.087
		c0.752-7.147,6.812-12.735,14.154-12.735c7.343,0,13.403,5.589,14.156,12.735H49.541z M120.893,52.298
		c-0.015,0.066-0.025,0.132-0.031,0.197l-3.459,15.296l-7.906,41.119H65.195v-5.162c8.802-0.764,15.735-8.163,15.735-17.161
		c0-9.504-7.732-17.235-17.236-17.235c-9.503,0-17.234,7.731-17.234,17.235c0,8.999,6.933,16.398,15.735,17.161v5.162H17.894
		L9.972,67.711L6.529,52.497c-0.006-0.066-0.017-0.133-0.031-0.199L3.64,39.66l15.005,7.028l-6.607,8.622
		c-0.28,0.366-0.377,0.84-0.263,1.286c0.115,0.446,0.429,0.815,0.851,1l26.729,11.731c0.506,0.221,1.094,0.147,1.528-0.194
		l15.762-12.369c0.591-0.464,0.748-1.293,0.367-1.941l-6.92-11.761l13.605-23.124L77.3,43.063l-6.92,11.761
		c-0.381,0.647-0.224,1.477,0.367,1.941l15.762,12.371c0.435,0.342,1.022,0.414,1.528,0.193l26.729-11.732
		c0.422-0.185,0.735-0.554,0.851-1c0.114-0.446,0.018-0.92-0.263-1.286l-6.608-8.622l15.005-7.028L120.893,52.298z"/>
	<g>
		<g>
			<g>
				<path style="fill:#33363A;" d="M43.762,103.824h-2.356c-0.828,0-1.5-0.672-1.5-1.5s0.672-1.5,1.5-1.5h2.356
					c0.828,0,1.5,0.672,1.5,1.5S44.59,103.824,43.762,103.824z"/>
			</g>
			<g>
				<path style="fill:#33363A;" d="M36.488,103.824h-2.357c-0.828,0-1.5-0.672-1.5-1.5s0.672-1.5,1.5-1.5h2.357
					c0.828,0,1.5,0.672,1.5,1.5S37.317,103.824,36.488,103.824z"/>
			</g>
			<g>
				<path style="fill:#33363A;" d="M29.214,103.824H15.731c-0.828,0-1.5-0.672-1.5-1.5s0.672-1.5,1.5-1.5h13.483
					c0.828,0,1.5,0.672,1.5,1.5S30.042,103.824,29.214,103.824z"/>
			</g>
			<g>
				<path style="fill:#33363A;" d="M48.155,103.825c-0.391,0-0.78-0.16-1.061-0.44c-0.279-0.279-0.439-0.67-0.439-1.06
					c0-0.4,0.16-0.78,0.439-1.061c0.561-0.56,1.561-0.56,2.12,0c0.28,0.28,0.44,0.671,0.44,1.061s-0.16,0.78-0.44,1.06
					C48.936,103.665,48.555,103.825,48.155,103.825z"/>
			</g>
		</g>
		<g>
			<g>
				<path style="fill:#33363A;" d="M85.986,103.824H83.63c-0.828,0-1.5-0.672-1.5-1.5s0.672-1.5,1.5-1.5h2.356
					c0.828,0,1.5,0.672,1.5,1.5S86.815,103.824,85.986,103.824z"/>
			</g>
			<g>
				<path style="fill:#33363A;" d="M93.26,103.824h-2.357c-0.828,0-1.5-0.672-1.5-1.5s0.672-1.5,1.5-1.5h2.357
					c0.828,0,1.5,0.672,1.5,1.5S94.088,103.824,93.26,103.824z"/>
			</g>
			<g>
				<path style="fill:#33363A;" d="M111.66,103.824H98.177c-0.828,0-1.5-0.672-1.5-1.5s0.672-1.5,1.5-1.5h13.483
					c0.828,0,1.5,0.672,1.5,1.5S112.488,103.824,111.66,103.824z"/>
			</g>
			<g>
				<path style="fill:#33363A;" d="M79.236,103.825c-0.391,0-0.78-0.16-1.061-0.44c-0.279-0.279-0.439-0.67-0.439-1.06
					c0-0.4,0.16-0.78,0.439-1.061c0.561-0.56,1.561-0.56,2.12,0c0.28,0.28,0.44,0.671,0.44,1.061s-0.16,0.78-0.44,1.06
					C80.015,103.665,79.625,103.825,79.236,103.825z"/>
			</g>
		</g>
	</g>
	<g>
		<g>
			<circle style="fill:#A7BBC1;" cx="63.695" cy="88.391" r="5.202"/>
		</g>
		<g>
			<circle style="fill:#FFFFFF;" cx="63.695" cy="86.621" r="5.202"/>
		</g>
		<g>
			<path style="fill:#D8E5EA;" d="M60.016,90.299c-2.031-2.029-2.031-5.326,0-7.356c2.032-2.031,5.327-2.031,7.358,0"/>
		</g>
		<g>
			<path style="fill:#33363A;" d="M63.695,93.324c-1.791,0-3.475-0.698-4.74-1.965c-1.266-1.265-1.963-2.947-1.963-4.738
				s0.697-3.475,1.963-4.739c2.613-2.613,6.866-2.612,9.479-0.001l0,0c1.267,1.266,1.964,2.949,1.964,4.741
				c0,1.791-0.698,3.474-1.965,4.738C67.169,92.626,65.486,93.324,63.695,93.324z M63.695,82.921c-0.948,0-1.897,0.36-2.619,1.082
				c-0.699,0.699-1.084,1.629-1.084,2.618s0.385,1.919,1.084,2.616c1.4,1.402,3.84,1.401,5.236,0.001
				c0.7-0.699,1.086-1.628,1.086-2.617s-0.385-1.919-1.085-2.617c0-0.001,0-0.001,0-0.001
				C65.592,83.281,64.644,82.921,63.695,82.921z"/>
		</g>
	</g>
</g>
<g>
</g>
<g>
</g>
<g>
</g>
<g>
</g>
<g>
</g>
<g>
</g>
<g>
</g>
<g>
</g>
<g>
</g>
<g>
</g>
<g>
</g>
<g>
</g>
<g>
</g>
<g>
</g>
<g>
</g>
</svg>
